<svg id="Group_29" data-name="Group 29" xmlns="http://www.w3.org/2000/svg" xmlns:xlink="http://www.w3.org/1999/xlink" width="300" height="300" viewBox="0 0 300 300">
  <defs>
    <clipPath id="clip-path">
      <rect id="Rectangle_1" data-name="Rectangle 1" width="300" height="300" fill="none"/>
    </clipPath>
  </defs>
  <g id="Group_2" data-name="Group 2">
    <g id="Group_1" data-name="Group 1" clip-path="url(#clip-path)">
      <path id="Path_1" data-name="Path 1" d="M150.1.141A149.955,149.955,0,1,1,.141,150.1,149.954,149.954,0,0,1,150.1.141" transform="translate(-0.096 -0.096)" fill="#fff" fill-rule="evenodd"/>
      <circle id="Ellipse_1" data-name="Ellipse 1" cx="149.955" cy="149.955" r="149.955" transform="translate(-62.068 150) rotate(-45)" fill="none"/>
      <path id="Path_2" data-name="Path 2" d="M104.152,316.79A138.051,138.051,0,0,1,120.815,71.726a2.793,2.793,0,0,1,2.209,5.13,132.465,132.465,0,0,0-15.987,235.152,2.793,2.793,0,0,1-2.885,4.783M229.871,71.726A138.051,138.051,0,0,1,246.534,316.79a2.793,2.793,0,0,1-2.885-4.783A132.465,132.465,0,0,0,227.662,76.856a2.793,2.793,0,0,1,2.209-5.13" transform="translate(-25.343 -48.539)" fill="#4e1c72" fill-rule="evenodd"/>
      <path id="Path_3" data-name="Path 3" d="M357.774,56.685c-1.045,1.072-21.349,13.987-24.273,16.086a10.81,10.81,0,0,1-1.721,1.086c-.013-1.875.245-6.915-.293-8.322a4.161,4.161,0,0,0-5.883-1.729c-2.339,1.35-1.781,4.076-1.781,6.8,0,2.87.016,5.744,0,8.613-1.8.889-6.462,3.616-6.81,5.767a4.49,4.49,0,0,0,1.916,4.459c2.211,1.382,3.353-.032,4.894-.722l.006,30.716c0,5.529,7.953,5.282,7.953.214V83.672c.109-.463,23.068-15.512,24.884-16.642l6.205-4.083a12,12,0,0,1,2.309-1.4L398.549,83.4c-.184,11.548-.017,24.163-.015,35.83,0,3.931,3.693,5.46,6.534,3.482,2.1-1.463,1.458-6.858,1.458-10.336,0-7.877-.057-15.775.007-23.649,1.384.783,2.975,1.875,4.776.806a4.642,4.642,0,0,0,2.052-4.336c-.2-1.806-1.5-2.528-2.947-3.5a32.789,32.789,0,0,0-3.887-2.466V67.394a4,4,0,0,0-6.407-3.4c-1.392,1.038-1.579,1.8-1.589,4.037-.008,1.908-.017,3.838.011,5.745L375.9,59.01a19.11,19.11,0,0,1-3.328-2.325l.643-.516a40.956,40.956,0,0,0,4.82-3.327c2.273-2.158.8-5.147-.8-6.3-2.369-1.715-4.75.559-6.383,1.693a59.851,59.851,0,0,1-5.7,3.527c-.664.018-4.88-3.13-5.649-3.552-1.746-.96-4-3.455-6.436-1.7a4.192,4.192,0,0,0-.775,6.345,31.716,31.716,0,0,0,4.062,2.8,6.023,6.023,0,0,1,1.414,1.034" transform="translate(-215.169 -31.16)" fill="#4e1c72" fill-rule="evenodd"/>
      <path id="Path_4" data-name="Path 4" d="M431.64,144.676a2.317,2.317,0,0,1,.017.277,2.293,2.293,0,0,1-4.587,0,2.33,2.33,0,0,1,.017-.277Zm.866-3.276a.958.958,0,1,1-.958.958.958.958,0,0,1,.958-.958m-6.285,0a.958.958,0,1,1-.958.958.958.958,0,0,1,.958-.958m-14.386-4.5c.222,1.348,4.4,2.911,4.161.7-.131-1.227-4.571-3.186-4.161-.7m17.528-1.591a7.88,7.88,0,1,1-7.88,7.88,7.88,7.88,0,0,1,7.88-7.88m0,1.863a6.017,6.017,0,1,1-6.017,6.018,6.017,6.017,0,0,1,6.017-6.018m15.332.311c-1.006.3-1.992.278-2.1,1.382-.2,2.027,4.025.9,4.287-.3.345-1.577-1.271-1.355-2.188-1.082m-16.06-12.63c-1.147.743-.906,5.2,1.026,4.093,1.071-.612,1.088-5.465-1.026-4.093m-9.222,2.555c-1.094.707-.284,1.79.24,2.614,1.653,2.6,3.624,1.32,1.84-1.414-.414-.635-1.052-1.864-2.08-1.2m-7.08,21.435c1.773,0,4.636-.945,3.142-2.414-.619-.609-2.04-.1-2.673.113-1.648.551-1.968,2.3-.468,2.3m27.276-17.676c.525-.691,1.549-1.739.858-2.674-.809-1.1-1.787.081-2.228.663-2.321,3.065,0,3.808,1.37,2.011m3.049,16.337c-1.132.655-.278,1.78.445,2.132.679.329,2.077.959,2.769.66,2.4-1.037-1.925-3.537-3.214-2.792m-11.294,9.273c.429.619,6.659,3.986,7.548,4.428.775-1.4.641-6.858.486-8.84a28.562,28.562,0,0,0-4,2.219,30.5,30.5,0,0,1-4.031,2.194m6.731,6.155A41.229,41.229,0,0,1,433.4,160.4c-1.408-.791-3.233-1.835-4.684-2.607-2.646-1.407-7.449-4.407-9.491-5.258-.057,6.049-.613,9.608,3.737,13.365,5.546,4.791,13.536,1.365,15.13-2.976m-18.829-12.759,10.008,5.607,10.063-5.821a45.179,45.179,0,0,0,.1-6.641c-.232-5.98-4.562-10.28-10.147-10.209a10.308,10.308,0,0,0-5.158,1.434c-5.277,3-5.33,9.727-4.862,15.63m9.089-18.971c-12.542,1.7-11.088,12.608-11.089,20.684,0,7.245-.48,13.365,6.71,17.064a12.077,12.077,0,0,0,12.272-.879c6.3-4.157,5.189-12.218,5.192-18.54,0-7.675.587-13.006-6.632-17.087a10.953,10.953,0,0,0-6.452-1.241" transform="translate(-279.267 -84.592)" fill="#4e1c72" fill-rule="evenodd"/>
    </g>
  </g>
  <text id="H" transform="translate(88.481 271.697)" fill="#4e1c72" font-size="19" font-family="Mont-HeavyDEMO, Mont DEMO" font-weight="800"><tspan x="0" y="0">H</tspan></text>
  <g id="Group_4" data-name="Group 4">
    <g id="Group_3" data-name="Group 3" clip-path="url(#clip-path)">
      <path id="Path_5" data-name="Path 5" d="M288.161,806.178v5.183h-4.31v-5.183h-3.992v14.364h3.992v-5.514h4.31v5.514h3.992V806.178Z" transform="translate(-189.988 -547.293)" fill="none" stroke="#4e1c72" stroke-miterlimit="22.926" stroke-width="0.216"/>
    </g>
  </g>
  <text id="O" transform="translate(116.252 271.697)" fill="#4e1c72" font-size="19" font-family="Mont-HeavyDEMO, Mont DEMO" font-weight="800"><tspan x="0" y="0">O</tspan></text>
  <g id="Group_6" data-name="Group 6">
    <g id="Group_5" data-name="Group 5" clip-path="url(#clip-path)">
      <path id="Path_6" data-name="Path 6" d="M371.91,816.455a3.864,3.864,0,1,1,3.769-3.862,3.71,3.71,0,0,1-3.769,3.862Zm0,3.682c4.606,0,7.889-3.143,7.889-7.545s-3.283-7.546-7.889-7.546S364,808.2,364,812.592s3.3,7.546,7.913,7.546Z" transform="translate(-247.108 -546.525)" fill="none" stroke="#4e1c72" stroke-miterlimit="22.926" stroke-width="0.216"/>
    </g>
  </g>
  <text id="U" transform="translate(146.033 271.697)" fill="#4e1c72" font-size="19" font-family="Mont-HeavyDEMO, Mont DEMO" font-weight="800"><tspan x="0" y="0">U</tspan></text>
  <g id="Group_8" data-name="Group 8">
    <g id="Group_7" data-name="Group 7" clip-path="url(#clip-path)">
      <path id="Path_7" data-name="Path 7" d="M464.874,820.905c3.662,0,6.27-2.386,6.27-5.92v-8.807H467.1v8.734a2.228,2.228,0,1,1-4.452,0v-8.734H458.6v8.807C458.6,818.519,461.211,820.905,464.874,820.905Z" transform="translate(-311.334 -547.293)" fill="none" stroke="#4e1c72" stroke-miterlimit="22.926" stroke-width="0.216"/>
    </g>
  </g>
  <text id="S" transform="translate(173.763 271.697)" fill="#4e1c72" font-size="19" font-family="Mont-HeavyDEMO, Mont DEMO" font-weight="800"><tspan x="0" y="0">S</tspan></text>
  <g id="Group_10" data-name="Group 10">
    <g id="Group_9" data-name="Group 9" clip-path="url(#clip-path)">
      <path id="Path_8" data-name="Path 8" d="M549.042,820.176c3.336,0,5.747-1.628,5.747-4.766,0-3.28-2.765-3.986-4.879-4.532-1.352-.34-2.435-.61-2.435-1.426,0-.67.677-.976,1.382-.976a1.325,1.325,0,0,1,1.5,1.335h3.969c0-2.922-1.975-4.69-5.419-4.69-3.387,0-5.465,1.62-5.465,4.449,0,3.27,2.65,3.906,4.727,4.422,1.367.331,2.486.593,2.486,1.494,0,.785-.792,1.226-1.621,1.226a1.524,1.524,0,0,1-1.694-1.525h-4.082C543.254,818.318,545.526,820.176,549.042,820.176Z" transform="translate(-368.801 -546.576)" fill="none" stroke="#4e1c72" stroke-miterlimit="22.926" stroke-width="0.216"/>
    </g>
  </g>
  <text id="E" transform="translate(199.379 271.697)" fill="#4e1c72" font-size="19" font-family="Mont-HeavyDEMO, Mont DEMO" font-weight="800"><tspan x="0" y="0">E</tspan></text>
  <g id="Group_12" data-name="Group 12">
    <g id="Group_11" data-name="Group 11" clip-path="url(#clip-path)">
      <path id="Path_9" data-name="Path 9" d="M629.136,817.11v-2.15h4.718v-3.246h-4.718V809.6h5.252v-3.421H625.2v14.364h9.365V817.11Z" transform="translate(-424.429 -547.293)" fill="none" stroke="#4e1c72" stroke-miterlimit="22.926" stroke-width="0.216"/>
    </g>
  </g>
  <text id="D" transform="translate(25.812 154.107)" fill="#4e1c72" font-size="69" font-family="Bricktown"><tspan x="0" y="0">D</tspan></text>
  <g id="Group_14" data-name="Group 14">
    <g id="Group_13" data-name="Group 13" clip-path="url(#clip-path)">
      <path id="Path_10" data-name="Path 10" d="M103.57,348.237a9.982,9.982,0,0,1,5.114,1.338,47.173,47.173,0,0,1,4.462,2.952,46.808,46.808,0,0,0,4.462,2.952,9.977,9.977,0,0,0,5.114,1.339v-.893a7.97,7.97,0,0,1-1.785-.24,6.344,6.344,0,0,1-1.956-.824,5.177,5.177,0,0,1-1.579-1.579,4.474,4.474,0,0,1-.652-2.505V331.9a12.143,12.143,0,0,1,6.933,3.57,13,13,0,0,1,3.124,5.972,15.837,15.837,0,0,1,.069,6.556,12.739,12.739,0,0,1-2.231,5.32l.137.137a10.262,10.262,0,0,0,5.149-2.471,9.454,9.454,0,0,0,2.712-4.325,10.422,10.422,0,0,0,.1-5.252,12.675,12.675,0,0,0-2.574-5.217,16.9,16.9,0,0,0-5.286-4.222,22.593,22.593,0,0,0-8.135-2.334V301.488a14.72,14.72,0,0,1,1.613-.412,19.183,19.183,0,0,1,2.094-.309q1.1-.1,2.2-.171t1.922-.069a20.416,20.416,0,0,1,10.709,2.883A27.952,27.952,0,0,1,143.524,311a39.369,39.369,0,0,1,5.458,10.709,47.2,47.2,0,0,1,2.4,12.288,43.569,43.569,0,0,1-1,12.322,30.53,30.53,0,0,1-4.634,10.744,24.406,24.406,0,0,1-8.581,7.586,26.679,26.679,0,0,1-12.872,2.883,30,30,0,0,1-12.528-2.368,23.024,23.024,0,0,1-8.238-6.007,19.508,19.508,0,0,1-4.119-8,18.621,18.621,0,0,1-.241-8.307,14.867,14.867,0,0,1,3.467-6.933,12.659,12.659,0,0,1,6.9-3.947v10.16a4.487,4.487,0,0,1-.652,2.506,5.6,5.6,0,0,1-1.579,1.613,5.936,5.936,0,0,1-1.957.858,7.977,7.977,0,0,1-1.785.24ZM133.5,368.214a36.133,36.133,0,0,0,8.856-3.913,34.461,34.461,0,0,0,7.105-5.835,36.266,36.266,0,0,0,5.252-7.243,35.259,35.259,0,0,0,3.226-8.1,33.318,33.318,0,0,0,1.1-8.41,40.689,40.689,0,0,0-2.368-13.867,35.361,35.361,0,0,0-6.762-11.567,31.925,31.925,0,0,0-24.576-10.812q-2.747,0-5.286.24t-5.183.549q-2.644.309-5.629.584t-6.762.275v1.03a9.848,9.848,0,0,1,2.162.275,7.042,7.042,0,0,1,2.3,1,6.233,6.233,0,0,1,1.854,1.922,5.516,5.516,0,0,1,.755,2.986v22.311a21.638,21.638,0,0,0-8.41,2.574,18.258,18.258,0,0,0-5.7,4.943,16.128,16.128,0,0,0-2.883,6.453,18.034,18.034,0,0,0,0,7.174,19.754,19.754,0,0,0,2.952,7.036,22.468,22.468,0,0,0,6.007,6.041,31.231,31.231,0,0,0,9.13,4.222A43.8,43.8,0,0,0,123,369.656,36.879,36.879,0,0,0,133.5,368.214Z" transform="translate(-62.587 -202.621)" fill="none" stroke="#4e1c72" stroke-miterlimit="22.926" stroke-width="0.216"/>
    </g>
  </g>
  <text id="e-2" data-name="e" transform="translate(94.393 152.107)" fill="#4e1c72" font-size="67" font-family="Bricktown"><tspan x="0" y="0">e</tspan></text>
  <g id="Group_16" data-name="Group 16">
    <g id="Group_15" data-name="Group 15" clip-path="url(#clip-path)">
      <path id="Path_11" data-name="Path 11" d="M304.631,330.533v.892a8.269,8.269,0,0,1,1.853.24,6.393,6.393,0,0,1,1.957.824,4.863,4.863,0,0,1,1.545,1.579,4.677,4.677,0,0,1,.618,2.506v35.972a4.671,4.671,0,0,1-.618,2.505,4.841,4.841,0,0,1-1.545,1.579,6.346,6.346,0,0,1-1.957.824,8.2,8.2,0,0,1-1.853.24v.893h32.951l1.373-6.59h-.824a10.8,10.8,0,0,1-1.339,2.54,4.579,4.579,0,0,1-1.956,1.476,10.968,10.968,0,0,1-3.227.687q-1.992.172-5.08.172h-9.885v-22.38h7.277q1.578,0,3.123.034a12.332,12.332,0,0,1,2.849.378,4.126,4.126,0,0,1,2.094,1.236,3.715,3.715,0,0,1,.789,2.54h.824V348.588h-.824a3.581,3.581,0,0,1-.789,2.506,4.446,4.446,0,0,1-2.094,1.236,11.08,11.08,0,0,1-2.849.412q-1.544.036-3.123.034h-7.277V332.249h13.318a18.3,18.3,0,0,1,2.437.137,4.067,4.067,0,0,1,1.716.618,3.6,3.6,0,0,1,1.2,1.476,10,10,0,0,1,.755,2.643h.892v-6.59Z" transform="translate(-206.806 -224.39)" fill="none" stroke="#4e1c72" stroke-miterlimit="22.926" stroke-width="0.216"/>
    </g>
  </g>
  <text id="a" transform="translate(135.582 152.107)" fill="#4e1c72" font-size="67" font-family="Bricktown"><tspan x="0" y="0">a</tspan></text>
  <g id="Group_18" data-name="Group 18">
    <g id="Group_17" data-name="Group 17" clip-path="url(#clip-path)">
      <path id="Path_12" data-name="Path 12" d="M467.359,364.535a14.52,14.52,0,0,1-5.217-1.167q-2.335-1.03-4.531-2.231t-4.462-2.231a12.924,12.924,0,0,0-5.08-1.1l9.13-20.32Zm2.128,5.835a4.734,4.734,0,0,1,.343,2.505,2.722,2.722,0,0,1-.892,1.579,4.014,4.014,0,0,1-1.579.824,6.565,6.565,0,0,1-1.716.24v.892h17.917v-.892a8.2,8.2,0,0,1-1.853-.24,9.036,9.036,0,0,1-2.094-.789,7.486,7.486,0,0,1-2.025-1.579,7.338,7.338,0,0,1-1.511-2.54l-16.2-43.043L443.2,364.6a41.643,41.643,0,0,1-3.3,6.11,15.755,15.755,0,0,1-2.814,3.261,6.086,6.086,0,0,1-2.334,1.3,7.974,7.974,0,0,1-1.785.24l-.068.892h13.181v-.892a7.635,7.635,0,0,1-1.716-.206,1.938,1.938,0,0,1-1.339-1.27,6.362,6.362,0,0,1-.1-3.261,28.033,28.033,0,0,1,2.059-6.178l2.265-5.011a14.27,14.27,0,0,1,5.595,1.03q2.436,1.03,4.737,2.265t4.771,2.3a14.1,14.1,0,0,0,5.629,1.064Z" transform="translate(-293.883 -222.214)" fill="none" stroke="#4e1c72" stroke-miterlimit="22.926" stroke-width="0.216"/>
    </g>
  </g>
  <text id="r" transform="translate(193.11 152.107)" fill="#4e1c72" font-size="67" font-family="Bricktown"><tspan x="0" y="0">r</tspan></text>
  <g id="Group_20" data-name="Group 20">
    <g id="Group_19" data-name="Group 19" clip-path="url(#clip-path)">
      <path id="Path_13" data-name="Path 13" d="M646.4,350.092a12.547,12.547,0,0,0,4.05-5.355,9.358,9.358,0,0,0,.172-5.972,12.147,12.147,0,0,0-3.638-5.561,20.753,20.753,0,0,0-7.38-4.085,34.539,34.539,0,0,0-11.087-1.579q-2.472,0-4.5.137t-3.913.343q-1.889.206-3.844.343t-4.222.137v.892a8.253,8.253,0,0,1,1.854.24,6.408,6.408,0,0,1,1.957.824,4.875,4.875,0,0,1,1.545,1.579,4.68,4.68,0,0,1,.618,2.506v35.972a4.674,4.674,0,0,1-.618,2.505,4.846,4.846,0,0,1-1.545,1.579,6.354,6.354,0,0,1-1.957.824,8.2,8.2,0,0,1-1.854.24v.892h17.986v-.892a8.2,8.2,0,0,1-1.854-.24,6.349,6.349,0,0,1-1.957-.824,4.84,4.84,0,0,1-1.544-1.579,4.669,4.669,0,0,1-.618-2.505V330.081a12.079,12.079,0,0,1,2.471-.652,18.832,18.832,0,0,1,3.089-.241,18.144,18.144,0,0,1,8.478,1.75A12.958,12.958,0,0,1,643.1,335.3a10.91,10.91,0,0,1,1.785,5.629,11.129,11.129,0,0,1-5.286,9.988,12.1,12.1,0,0,1-6.693,1.751,13.364,13.364,0,0,1-4.257-.687,19.506,19.506,0,0,1-3.981-1.854v1.579a6.916,6.916,0,0,0,1.888,1.373,9.682,9.682,0,0,0,2.025.721q1.03.241,2.094.412t2.094.378a8.784,8.784,0,0,1,4.805,2.608,13.939,13.939,0,0,1,2.643,4.359,33.415,33.415,0,0,1,1.476,5.08,32.739,32.739,0,0,0,1.374,4.84,10.041,10.041,0,0,0,2.265,3.638,5.573,5.573,0,0,0,4.119,1.442h4.737v-.892h-1.029a2.866,2.866,0,0,1-2.609-1.476,14,14,0,0,1-1.476-3.707q-.584-2.23-1.133-4.908a24.9,24.9,0,0,0-1.613-5.08,14.309,14.309,0,0,0-2.883-4.256,8.959,8.959,0,0,0-5.046-2.4A20.792,20.792,0,0,0,646.4,350.092Z" transform="translate(-415.498 -222.359)" fill="none" stroke="#4e1c72" stroke-miterlimit="22.926" stroke-width="0.216"/>
    </g>
  </g>
  <text id="B" transform="translate(57.457 225.128)" fill="#4e1c72" font-size="67" font-family="Bricktown"><tspan x="0" y="0">B</tspan></text>
  <g id="Group_22" data-name="Group 22">
    <g id="Group_21" data-name="Group 21" clip-path="url(#clip-path)">
      <path id="Path_14" data-name="Path 14" d="M201.863,575.628a9.986,9.986,0,0,1,5.115,1.338,50.963,50.963,0,0,1,4.5,2.952,50.354,50.354,0,0,0,4.5,2.952,9.975,9.975,0,0,0,5.114,1.339v-.892a8.2,8.2,0,0,1-1.854-.24,6.357,6.357,0,0,1-1.957-.824,5.176,5.176,0,0,1-1.579-1.579,4.474,4.474,0,0,1-.652-2.505V559.29a13.027,13.027,0,0,1,5.114,1.991,11.935,11.935,0,0,1,3.329,3.363A12.5,12.5,0,0,1,225.2,568.8a16.187,16.187,0,0,1,.343,4.428,16.354,16.354,0,0,1-.789,4.153,11.668,11.668,0,0,1-1.682,3.329l.138.137a10.112,10.112,0,0,0,5.148-2.506,9.425,9.425,0,0,0,2.677-4.325,10.818,10.818,0,0,0,.1-5.217,12.138,12.138,0,0,0-2.574-5.217,17.23,17.23,0,0,0-5.354-4.222,22.925,22.925,0,0,0-8.169-2.334V528.878a15.081,15.081,0,0,1,4.016-.926,20.26,20.26,0,0,1,4.7.069,21.137,21.137,0,0,1,4.7,1.167,13.746,13.746,0,0,1,4.118,2.4,12.174,12.174,0,0,1,2.952,3.741,11.092,11.092,0,0,1,1.133,5.149,10.672,10.672,0,0,1-1.1,4.634,11.654,11.654,0,0,1-3.261,4.05,17.365,17.365,0,0,1-5.388,2.849,22.97,22.97,0,0,1-7.415,1.1v2.059h1.03a8.314,8.314,0,0,0,1.03-.068,20.192,20.192,0,0,1,7.758,1.442,17.65,17.65,0,0,1,6.007,4.016,18.5,18.5,0,0,1,3.913,6.075,20.446,20.446,0,0,1,1.407,7.689,21.888,21.888,0,0,1-1.338,7.483,19.265,19.265,0,0,1-4.05,6.625A19.843,19.843,0,0,1,228.5,593.1a23.919,23.919,0,0,1-9.542,1.75,24.938,24.938,0,0,1-8.616-1.373,21.033,21.033,0,0,1-6.384-3.6,17.622,17.622,0,0,1-4.222-5.183,21.756,21.756,0,0,1-2.2-6.075,19.1,19.1,0,0,1-.206-6.247,17.979,17.979,0,0,1,1.716-5.732,14.466,14.466,0,0,1,3.536-4.531,12.61,12.61,0,0,1,5.251-2.677v10.16a4.674,4.674,0,0,1-.618,2.506,4.85,4.85,0,0,1-1.544,1.579,6.351,6.351,0,0,1-1.957.824,8.2,8.2,0,0,1-1.854.24ZM200.7,528.055a10.306,10.306,0,0,1,2.2.275,7.386,7.386,0,0,1,2.368,1,6.076,6.076,0,0,1,1.888,1.922,5.653,5.653,0,0,1,.755,3.055l-.069,22.723a21.2,21.2,0,0,0-8.032,2.643,19.054,19.054,0,0,0-5.629,4.943,17.457,17.457,0,0,0-3.055,6.453,19.057,19.057,0,0,0-.378,7.1,19.619,19.619,0,0,0,7.654,12.974,27.2,27.2,0,0,0,8.306,4.188,37.4,37.4,0,0,0,11.43,1.579,38.484,38.484,0,0,0,13.043-2.025,29.134,29.134,0,0,0,9.4-5.32,21.807,21.807,0,0,0,5.664-7.483,20.378,20.378,0,0,0,1.888-8.444,17.957,17.957,0,0,0-1.442-7.277,18.951,18.951,0,0,0-3.879-5.767,22.306,22.306,0,0,0-5.7-4.153,28.736,28.736,0,0,0-6.968-2.505q7-1.785,10.469-5.458a11.246,11.246,0,0,0,3.467-7.792,11.57,11.57,0,0,0-2.025-6.934,15.162,15.162,0,0,0-5.355-4.565,26.7,26.7,0,0,0-7.551-2.54,47.21,47.21,0,0,0-8.684-.79q-2.953,0-5.389.172t-4.7.412q-2.265.241-4.6.412t-5.08.172Z" transform="translate(-129.372 -356.991)" fill="none" stroke="#4e1c72" stroke-miterlimit="22.926" stroke-width="0.216"/>
    </g>
  </g>
  <text id="a-2" data-name="a" transform="translate(118.76 225.128)" fill="#4e1c72" font-size="67" font-family="Bricktown"><tspan x="0" y="0">a</tspan></text>
  <g id="Group_24" data-name="Group 24">
    <g id="Group_23" data-name="Group 23" clip-path="url(#clip-path)">
      <path id="Path_15" data-name="Path 15" d="M414.974,591.926a14.519,14.519,0,0,1-5.217-1.167q-2.335-1.029-4.531-2.231t-4.462-2.231a12.921,12.921,0,0,0-5.08-1.1l9.13-20.32Zm2.128,5.835a4.739,4.739,0,0,1,.343,2.506,2.722,2.722,0,0,1-.892,1.579,4.017,4.017,0,0,1-1.579.824,6.561,6.561,0,0,1-1.716.24v.892h17.918v-.892a8.189,8.189,0,0,1-1.854-.24,9.013,9.013,0,0,1-2.094-.789A7.464,7.464,0,0,1,425.2,600.3a7.325,7.325,0,0,1-1.511-2.54l-16.2-43.043-16.682,37.276a41.631,41.631,0,0,1-3.3,6.11,15.74,15.74,0,0,1-2.815,3.261,6.085,6.085,0,0,1-2.334,1.3,7.973,7.973,0,0,1-1.785.24l-.068.892h13.181v-.892a7.659,7.659,0,0,1-1.716-.205,1.937,1.937,0,0,1-1.338-1.27,6.357,6.357,0,0,1-.1-3.261,28.034,28.034,0,0,1,2.059-6.179l2.266-5.011a14.27,14.27,0,0,1,5.6,1.03q2.436,1.029,4.737,2.265t4.771,2.3a14.1,14.1,0,0,0,5.629,1.064Z" transform="translate(-258.32 -376.583)" fill="none" stroke="#4e1c72" stroke-miterlimit="22.926" stroke-width="0.216"/>
    </g>
  </g>
  <text id="b-2" data-name="b" transform="translate(176.287 227.128)" fill="#4e1c72" font-size="69" font-family="Bricktown"><tspan x="0" y="0">b</tspan></text>
  <g id="Group_26" data-name="Group 26">
    <g id="Group_25" data-name="Group 25" clip-path="url(#clip-path)">
      <path id="Path_16" data-name="Path 16" d="M577.64,604.528a29.4,29.4,0,0,0,10.263-1.579,17.41,17.41,0,0,0,6.59-4.05,10.592,10.592,0,0,0,2.917-5.458,9.3,9.3,0,0,0-.755-5.766,13.718,13.718,0,0,0-4.393-5.08,20.216,20.216,0,0,0-8.032-3.33q5.834-1.51,8.753-4.6a9.423,9.423,0,0,0,2.917-6.522,9.607,9.607,0,0,0-1.682-5.766,12.783,12.783,0,0,0-4.462-3.81,21.854,21.854,0,0,0-6.35-2.128,40.409,40.409,0,0,0-7.277-.652q-2.472,0-4.462.137t-3.913.343q-1.923.206-3.879.343t-4.222.137v.892a8.252,8.252,0,0,1,1.854.24,6.411,6.411,0,0,1,1.957.824,4.872,4.872,0,0,1,1.545,1.579,4.681,4.681,0,0,1,.618,2.505v35.7a4.674,4.674,0,0,1-.618,2.506,4.846,4.846,0,0,1-1.545,1.579,6.355,6.355,0,0,1-1.957.824,8.2,8.2,0,0,1-1.854.24v.892Zm-5.973-1.579V558.327a12.283,12.283,0,0,1,2.334-.652,15.129,15.129,0,0,1,2.745-.24,18.448,18.448,0,0,1,4.737.617,12.607,12.607,0,0,1,4.153,1.922,10.231,10.231,0,0,1,2.952,3.3,9.424,9.424,0,0,1,1.133,4.737,8.779,8.779,0,0,1-.927,3.844,9.909,9.909,0,0,1-2.746,3.4,14.663,14.663,0,0,1-4.5,2.4,18.863,18.863,0,0,1-6.178.927v1.716c.274,0,.56-.01.858-.034s.583-.035.858-.035a18.784,18.784,0,0,1,5.149.721,14.33,14.33,0,0,1,4.565,2.2,11.824,11.824,0,0,1,3.3,3.672,9.971,9.971,0,0,1,1.27,5.08,10.152,10.152,0,0,1-.858,4.05,10.317,10.317,0,0,1-2.54,3.535,12.851,12.851,0,0,1-4.256,2.506,17.126,17.126,0,0,1-6.007.961Z" transform="translate(-379.934 -377.309)" fill="none" stroke="#4e1c72" stroke-miterlimit="22.926" stroke-width="0.216"/>
    </g>
  </g>
  <text id="y" transform="translate(214.594 223.128)" fill="#4e1c72" font-size="66" font-family="Bricktown"><tspan x="0" y="0">y</tspan></text>
  <g id="Group_28" data-name="Group 28">
    <g id="Group_27" data-name="Group 27" clip-path="url(#clip-path)">
      <path id="Path_17" data-name="Path 17" d="M699.536,585.452v14.485a4.673,4.673,0,0,1-.618,2.506,4.842,4.842,0,0,1-1.545,1.579,6.346,6.346,0,0,1-1.956.824,8.2,8.2,0,0,1-1.854.24v.892h17.986v-.892a7.967,7.967,0,0,1-1.784-.24,6.35,6.35,0,0,1-1.957-.824,5.174,5.174,0,0,1-1.579-1.579,4.474,4.474,0,0,1-.652-2.506V584.972l10.641-18.878a21.068,21.068,0,0,1,2.918-4.153,11.188,11.188,0,0,1,2.677-2.162,6.264,6.264,0,0,1,2.334-.79q1.064-.1,1.888-.1v-.962H712.716v.962a14.967,14.967,0,0,1,1.716.1,1.75,1.75,0,0,1,1.339.79,3.129,3.129,0,0,1,.206,2.162,14.1,14.1,0,0,1-1.75,4.153l-9.336,16.682-11.327-20.526a2.249,2.249,0,0,1-.343-1.682,1.777,1.777,0,0,1,.892-1.03,4.782,4.782,0,0,1,1.579-.515,11.317,11.317,0,0,1,1.716-.137v-.962H678.941v.962a14.2,14.2,0,0,1,1.854.137,10.468,10.468,0,0,1,2.093.515,8.258,8.258,0,0,1,1.991,1.03,5.46,5.46,0,0,1,1.545,1.682Z" transform="translate(-460.915 -378.76)" fill="none" stroke="#4e1c72" stroke-miterlimit="22.926" stroke-width="0.216"/>
    </g>
  </g>
</svg>
