<svg xmlns="http://www.w3.org/2000/svg" width="300.28" height="300.28" viewBox="0 0 300.28 300.28">
  <g id="Group_1" data-name="Group 1" transform="translate(-0.01 -0.01)">
    <circle id="Ellipse_1" data-name="Ellipse 1" cx="150" cy="150" r="150" transform="translate(0.15 0.15)" fill="#fff"/>
    <circle id="Ellipse_2" data-name="Ellipse 2" cx="150" cy="150" r="150" transform="translate(0.15 0.15)" fill="none" stroke="#63296f" stroke-miterlimit="22.93" stroke-width="0.28"/>
    <path id="Path_1" data-name="Path 1" d="M104.171,316.872A138.095,138.095,0,0,1,120.839,71.731a2.794,2.794,0,0,1,2.21,5.133,132.507,132.507,0,0,0-15.994,235.225,2.794,2.794,0,1,1-2.888,4.783M229.931,71.731A138.095,138.095,0,0,1,246.6,316.872a2.794,2.794,0,1,1-2.888-4.783A132.507,132.507,0,0,0,227.718,76.864a2.794,2.794,0,0,1,2.21-5.133Z" transform="translate(-25.237 -48.434)" fill="#63296f" fill-rule="evenodd"/>
    <path id="Path_2" data-name="Path 2" d="M357.791,56.693c-1.044,1.073-21.355,13.993-24.282,16.09a10.723,10.723,0,0,1-1.722,1.086c-.013-1.876.244-6.916-.292-8.326a4.162,4.162,0,0,0-5.885-1.728c-2.342,1.349-1.78,4.076-1.78,6.8,0,2.872.016,5.747,0,8.615-1.805.89-6.463,3.617-6.813,5.769a4.5,4.5,0,0,0,1.918,4.462c2.213,1.381,3.354-.032,4.9-.723l.006,30.725c0,5.532,7.957,5.284,7.957.215V83.689c.109-.463,23.074-15.515,24.892-16.646l6.206-4.086a11.98,11.98,0,0,1,2.31-1.4l33.385,21.859c-.183,11.551-.016,24.169-.016,35.842,0,3.932,3.694,5.461,6.537,3.482,2.1-1.465,1.458-6.861,1.458-10.34,0-7.88-.058-15.779.006-23.655,1.385.784,2.975,1.876,4.777.806a4.643,4.643,0,0,0,2.053-4.337c-.2-1.805-1.5-2.528-2.949-3.5a33.034,33.034,0,0,0-3.89-2.467V67.406a4,4,0,0,0-6.408-3.4c-1.394,1.038-1.58,1.8-1.59,4.038-.01,1.908-.016,3.839.01,5.747L375.924,59.022A19.1,19.1,0,0,1,372.6,56.7l.642-.517a41.068,41.068,0,0,0,4.822-3.328c2.274-2.159.8-5.149-.8-6.3-2.371-1.715-4.751.559-6.386,1.693a59.4,59.4,0,0,1-5.7,3.527c-.665.019-4.883-3.132-5.65-3.553-1.747-.96-4.006-3.456-6.437-1.7a4.2,4.2,0,0,0-.774,6.347,31.553,31.553,0,0,0,4.064,2.8,6.055,6.055,0,0,1,1.413,1.034" transform="translate(-215.039 -31.057)" fill="#63296f" fill-rule="evenodd"/>
    <path id="Path_3" data-name="Path 3" d="M431.641,144.679a2.6,2.6,0,0,1,.016.276,2.294,2.294,0,1,1-4.587,0,2.611,2.611,0,0,1,.016-.276h4.555Zm.867-3.277a.957.957,0,1,1-.957.957A.958.958,0,0,1,432.508,141.4Zm-6.286,0a.957.957,0,1,1-.957.957A.958.958,0,0,1,426.221,141.4Zm-14.391-4.5c.222,1.349,4.4,2.914,4.163.7C415.862,136.372,411.423,134.413,411.831,136.9Zm17.533-1.593a7.883,7.883,0,1,1-7.883,7.883,7.884,7.884,0,0,1,7.883-7.883Zm0,1.863a6.02,6.02,0,1,1-6.02,6.02A6.02,6.02,0,0,1,429.363,137.169Zm15.335.312c-1.005.3-1.992.276-2.1,1.381-.2,2.027,4.025.9,4.288-.3.344-1.577-1.272-1.356-2.188-1.083Zm-16.065-12.634c-1.147.745-.906,5.2,1.028,4.1C430.735,128.332,430.751,123.475,428.634,124.847Zm-9.226,2.554c-1.1.707-.283,1.789.241,2.615,1.654,2.6,3.623,1.32,1.841-1.413C421.075,127.966,420.436,126.739,419.408,127.4Zm-7.083,21.442c1.773,0,4.639-.944,3.142-2.416-.62-.61-2.04-.1-2.676.112-1.648.553-1.969,2.3-.469,2.3Zm27.285-17.684c.524-.691,1.548-1.738.858-2.676-.81-1.1-1.789.08-2.229.662-2.322,3.068,0,3.81,1.372,2.011Zm3.052,16.341c-1.134.655-.279,1.78.446,2.133.678.331,2.078.96,2.769.662,2.406-1.038-1.927-3.54-3.215-2.791Zm-11.3,9.277c.43.62,6.662,3.986,7.552,4.43.774-1.4.642-6.861.485-8.843a28.757,28.757,0,0,0-4.006,2.22A30.37,30.37,0,0,1,431.364,156.777Zm6.733,6.158a41.143,41.143,0,0,1-4.693-2.525c-1.407-.79-3.235-1.837-4.684-2.608-2.647-1.407-7.452-4.407-9.492-5.262-.058,6.052-.614,9.611,3.739,13.369,5.548,4.793,13.54,1.365,15.136-2.978Zm-18.834-12.762,10.013,5.609,10.067-5.824a45.025,45.025,0,0,0,.1-6.643c-.231-5.981-4.565-10.282-10.151-10.212a10.291,10.291,0,0,0-5.159,1.436c-5.278,3-5.332,9.73-4.863,15.634Zm9.091-18.978c-12.544,1.7-11.092,12.611-11.092,20.69,0,7.247-.482,13.369,6.71,17.07a12.079,12.079,0,0,0,12.274-.88c6.3-4.157,5.191-12.223,5.194-18.548,0-7.677.588-13.01-6.633-17.092a10.936,10.936,0,0,0-6.453-1.24Z" transform="translate(-279.117 -84.476)" fill="#63296f" fill-rule="evenodd"/>
    <path id="Path_4" data-name="Path 4" d="M394.72,816.361v-2.155h4.719v-3.244H394.72v-2.117h5.252v-3.421h-9.194v14.365h9.367v-3.427Zm-24.477,3.774c3.334,0,5.747-1.629,5.747-4.764,0-5.336-7.327-3.855-7.327-5.943,0-.671.681-.977,1.391-.977a1.328,1.328,0,0,1,1.507,1.33h3.961c0-2.923-1.969-4.69-5.419-4.69s-5.477,1.622-5.477,4.452c0,3.264,2.65,3.9,4.732,4.414,1.378.328,2.493.588,2.493,1.487,0,.784-.79,1.224-1.619,1.224a1.522,1.522,0,0,1-1.69-1.523h-4.086c0,3.125,2.274,4.985,5.785,4.985Zm-26.72,0c3.665,0,6.27-2.38,6.27-5.911v-8.8h-4.044v8.734a2.228,2.228,0,1,1-4.452,0v-8.734h-4.044v8.8C337.252,817.758,339.861,820.138,343.523,820.138Zm-28.74-3.668a3.866,3.866,0,1,1,3.771-3.864A3.712,3.712,0,0,1,314.783,816.47Zm0,3.681c4.61,0,7.889-3.145,7.889-7.546s-3.28-7.546-7.889-7.546-7.912,3.154-7.912,7.546S310.167,820.151,314.783,820.151ZM288.143,805.42v5.175h-4.317V805.42h-4v14.369h4v-5.525h4.317v5.525h4V805.42Z" transform="translate(-189.839 -546.352)" fill="#63296f"/>
    <path id="Path_5" data-name="Path 5" d="M394.72,816.361v-2.155h4.719v-3.244H394.72v-2.117h5.252v-3.421h-9.194v14.365h9.367v-3.427Zm-24.477,3.774c3.334,0,5.747-1.629,5.747-4.764,0-5.336-7.327-3.855-7.327-5.943,0-.671.681-.977,1.391-.977a1.328,1.328,0,0,1,1.507,1.33h3.961c0-2.923-1.969-4.69-5.419-4.69s-5.477,1.622-5.477,4.452c0,3.264,2.65,3.9,4.732,4.414,1.378.328,2.493.588,2.493,1.487,0,.784-.79,1.224-1.619,1.224a1.522,1.522,0,0,1-1.69-1.523h-4.086c0,3.125,2.274,4.985,5.785,4.985Zm-26.72,0c3.665,0,6.27-2.38,6.27-5.911v-8.8h-4.044v8.734a2.228,2.228,0,1,1-4.452,0v-8.734h-4.044v8.8C337.252,817.758,339.861,820.138,343.523,820.138Zm-28.74-3.668a3.866,3.866,0,1,1,3.771-3.864A3.712,3.712,0,0,1,314.783,816.47Zm0,3.681c4.61,0,7.889-3.145,7.889-7.546s-3.28-7.546-7.889-7.546-7.912,3.154-7.912,7.546S310.167,820.151,314.783,820.151ZM288.143,805.42v5.175h-4.317V805.42h-4v14.369h4v-5.525h4.317v5.525h4V805.42Z" transform="translate(-189.839 -546.352)" fill="none" stroke="#63296f" stroke-miterlimit="22.93" stroke-width="0.22"/>
    <path id="Path_6" data-name="Path 6" d="M285.546,334.1a8.936,8.936,0,0,1,5.046,2.4,14.3,14.3,0,0,1,2.885,4.256,24.808,24.808,0,0,1,1.613,5.082q.549,2.679,1.134,4.908a13.941,13.941,0,0,0,1.478,3.707,2.872,2.872,0,0,0,2.608,1.478h1.031v.893H296.6a5.584,5.584,0,0,1-4.121-1.442,10.009,10.009,0,0,1-2.265-3.64,32.756,32.756,0,0,1-1.375-4.841,33.127,33.127,0,0,0-1.478-5.082,13.9,13.9,0,0,0-2.644-4.359,8.766,8.766,0,0,0-4.806-2.608q-1.031-.207-2.094-.379c-.71-.116-1.407-.251-2.094-.411a9.924,9.924,0,0,1-2.027-.72,6.908,6.908,0,0,1-1.889-1.375v-1.58a19.525,19.525,0,0,0,3.983,1.853,13.423,13.423,0,0,0,4.256.687,12.1,12.1,0,0,0,6.694-1.751,11.131,11.131,0,0,0,5.287-9.99,10.907,10.907,0,0,0-1.786-5.631,12.9,12.9,0,0,0-5.014-4.359,18.155,18.155,0,0,0-8.48-1.751,18.757,18.757,0,0,0-3.09.241,12.2,12.2,0,0,0-2.473.652v40.446a4.672,4.672,0,0,0,.617,2.506,4.85,4.85,0,0,0,1.545,1.58,6.369,6.369,0,0,0,1.956.826,8.223,8.223,0,0,0,1.853.241v.893H259.167v-.893a8.224,8.224,0,0,0,1.853-.241,6.292,6.292,0,0,0,1.956-.826,4.85,4.85,0,0,0,1.545-1.58,4.688,4.688,0,0,0,.617-2.506V314.807a4.672,4.672,0,0,0-.617-2.506,4.85,4.85,0,0,0-1.545-1.58,6.37,6.37,0,0,0-1.956-.826,8.225,8.225,0,0,0-1.853-.241v-.893q2.265,0,4.224-.138t3.845-.344q1.889-.207,3.916-.344t4.5-.138a34.495,34.495,0,0,1,11.089,1.58,20.757,20.757,0,0,1,7.382,4.086,12.121,12.121,0,0,1,3.639,5.564,9.384,9.384,0,0,1-.17,5.975,12.547,12.547,0,0,1-4.051,5.355,20.821,20.821,0,0,1-8,3.742ZM225.939,317.9l-9.132,20.327a12.894,12.894,0,0,1,5.082,1.1q2.265,1.031,4.465,2.233t4.533,2.233a14.494,14.494,0,0,0,5.22,1.166L225.942,317.9Zm10.78,28.772a14.107,14.107,0,0,1-5.631-1.063q-2.472-1.065-4.773-2.3t-4.738-2.265a14.262,14.262,0,0,0-5.6-1.031l-2.265,5.014a28.086,28.086,0,0,0-2.059,6.18,6.366,6.366,0,0,0,.1,3.26,1.936,1.936,0,0,0,1.34,1.269,7.569,7.569,0,0,0,1.715.206v.893H201.632l.067-.893a8.006,8.006,0,0,0,1.786-.241,6.1,6.1,0,0,0,2.335-1.3,15.676,15.676,0,0,0,2.814-3.26,41.155,41.155,0,0,0,3.3-6.113l16.688-37.288,16.206,43.057a7.367,7.367,0,0,0,1.51,2.541,7.462,7.462,0,0,0,2.027,1.58,9.082,9.082,0,0,0,2.094.79,8.223,8.223,0,0,0,1.853.241v.893H234.384v-.893a6.568,6.568,0,0,0,1.715-.241,4.012,4.012,0,0,0,1.58-.826,2.718,2.718,0,0,0,.893-1.58,4.722,4.722,0,0,0-.344-2.506l-1.51-4.121Zm-43.95-37.9v6.592h-.893a9.944,9.944,0,0,0-.755-2.644,3.59,3.59,0,0,0-1.2-1.478,4.024,4.024,0,0,0-1.715-.617,18,18,0,0,0-2.438-.138H172.445v20.533h7.279q1.58,0,3.126-.035a11.145,11.145,0,0,0,2.849-.411,4.446,4.446,0,0,0,2.094-1.237,3.574,3.574,0,0,0,.79-2.506h.826v10.093h-.826a3.71,3.71,0,0,0-.79-2.541,4.111,4.111,0,0,0-2.094-1.237,12.466,12.466,0,0,0-2.849-.379q-1.547-.034-3.126-.035h-7.279v22.386h9.887q3.089,0,5.082-.17a11.04,11.04,0,0,0,3.228-.687,4.557,4.557,0,0,0,1.956-1.478,10.784,10.784,0,0,0,1.34-2.541h.826l-1.375,6.592H160.428v-.893a8.223,8.223,0,0,0,1.853-.241,6.291,6.291,0,0,0,1.956-.826,4.849,4.849,0,0,0,1.545-1.58,4.688,4.688,0,0,0,.617-2.506V314.8a4.672,4.672,0,0,0-.617-2.506,4.85,4.85,0,0,0-1.545-1.58,6.37,6.37,0,0,0-1.956-.826,8.225,8.225,0,0,0-1.853-.241v-.893h32.344Zm-89.2,38.592a8.008,8.008,0,0,0,1.786-.241,5.947,5.947,0,0,0,1.956-.858,5.648,5.648,0,0,0,1.58-1.613,4.5,4.5,0,0,0,.652-2.506V331.977a12.653,12.653,0,0,0-6.9,3.948,14.868,14.868,0,0,0-3.469,6.935,18.641,18.641,0,0,0,.241,8.31,19.5,19.5,0,0,0,4.121,8,23.055,23.055,0,0,0,8.239,6.01,29.987,29.987,0,0,0,12.531,2.371,27.04,27.04,0,0,0,12.875-2.885,24.428,24.428,0,0,0,8.583-7.587,30.492,30.492,0,0,0,4.635-10.748,43.591,43.591,0,0,0,1-12.325,47.184,47.184,0,0,0-2.4-12.293A39.273,39.273,0,0,0,143.531,311a27.954,27.954,0,0,0-8.239-7.587,20.41,20.41,0,0,0-10.713-2.885q-.824,0-1.924.067t-2.2.17a18.732,18.732,0,0,0-2.094.308,15.31,15.31,0,0,0-1.613.411v28.156a22.526,22.526,0,0,1,8.137,2.335,16.9,16.9,0,0,1,5.287,4.224,12.727,12.727,0,0,1,2.576,5.22,10.417,10.417,0,0,1-.1,5.252A9.476,9.476,0,0,1,129.937,351a10.274,10.274,0,0,1-5.149,2.473l-.138-.138a12.759,12.759,0,0,0,2.233-5.323,15.9,15.9,0,0,0-.067-6.559,13.019,13.019,0,0,0-3.126-5.975,12.162,12.162,0,0,0-6.935-3.572v18.885a4.483,4.483,0,0,0,.652,2.506,5.15,5.15,0,0,0,1.58,1.58,6.369,6.369,0,0,0,1.956.826,8,8,0,0,0,1.786.241v.893a9.992,9.992,0,0,1-5.117-1.34,47.235,47.235,0,0,1-4.465-2.952,46.833,46.833,0,0,0-4.465-2.952,9.975,9.975,0,0,0-5.117-1.339v-.893ZM123,369.676a43.782,43.782,0,0,1-12.361-1.58,31.189,31.189,0,0,1-9.132-4.224,22.551,22.551,0,0,1-6.01-6.042,19.743,19.743,0,0,1-2.952-7.038,17.993,17.993,0,0,1,0-7.176,16.153,16.153,0,0,1,2.885-6.457,18.228,18.228,0,0,1,5.7-4.944,21.656,21.656,0,0,1,8.413-2.576V307.319a5.5,5.5,0,0,0-.755-2.987,6.252,6.252,0,0,0-1.853-1.924,7.012,7.012,0,0,0-2.3-1,9.791,9.791,0,0,0-2.162-.273v-1.031q3.778,0,6.765-.273t5.631-.585q2.645-.308,5.185-.549t5.287-.241a31.952,31.952,0,0,1,24.583,10.816,35.377,35.377,0,0,1,6.765,11.571,40.68,40.68,0,0,1,2.371,13.871,33.323,33.323,0,0,1-1.1,8.413,35.28,35.28,0,0,1-3.228,8.1,36.319,36.319,0,0,1-5.252,7.244,34.37,34.37,0,0,1-7.109,5.837,36.131,36.131,0,0,1-8.859,3.913,36.921,36.921,0,0,1-10.507,1.442Z" transform="translate(-62.471 -202.485)" fill="#63296f"/>
    <path id="Path_7" data-name="Path 7" d="M285.546,334.1a8.936,8.936,0,0,1,5.046,2.4,14.3,14.3,0,0,1,2.885,4.256,24.808,24.808,0,0,1,1.613,5.082q.549,2.679,1.134,4.908a13.941,13.941,0,0,0,1.478,3.707,2.872,2.872,0,0,0,2.608,1.478h1.031v.893H296.6a5.584,5.584,0,0,1-4.121-1.442,10.009,10.009,0,0,1-2.265-3.64,32.756,32.756,0,0,1-1.375-4.841,33.127,33.127,0,0,0-1.478-5.082,13.9,13.9,0,0,0-2.644-4.359,8.766,8.766,0,0,0-4.806-2.608q-1.031-.207-2.094-.379c-.71-.116-1.407-.251-2.094-.411a9.924,9.924,0,0,1-2.027-.72,6.908,6.908,0,0,1-1.889-1.375v-1.58a19.525,19.525,0,0,0,3.983,1.853,13.423,13.423,0,0,0,4.256.687,12.1,12.1,0,0,0,6.694-1.751,11.131,11.131,0,0,0,5.287-9.99,10.907,10.907,0,0,0-1.786-5.631,12.9,12.9,0,0,0-5.014-4.359,18.155,18.155,0,0,0-8.48-1.751,18.757,18.757,0,0,0-3.09.241,12.2,12.2,0,0,0-2.473.652v40.446a4.672,4.672,0,0,0,.617,2.506,4.85,4.85,0,0,0,1.545,1.58,6.369,6.369,0,0,0,1.956.826,8.223,8.223,0,0,0,1.853.241v.893H259.167v-.893a8.224,8.224,0,0,0,1.853-.241,6.292,6.292,0,0,0,1.956-.826,4.85,4.85,0,0,0,1.545-1.58,4.688,4.688,0,0,0,.617-2.506V314.807a4.672,4.672,0,0,0-.617-2.506,4.85,4.85,0,0,0-1.545-1.58,6.37,6.37,0,0,0-1.956-.826,8.225,8.225,0,0,0-1.853-.241v-.893q2.265,0,4.224-.138t3.845-.344q1.889-.207,3.916-.344t4.5-.138a34.495,34.495,0,0,1,11.089,1.58,20.757,20.757,0,0,1,7.382,4.086,12.121,12.121,0,0,1,3.639,5.564,9.384,9.384,0,0,1-.17,5.975,12.547,12.547,0,0,1-4.051,5.355,20.821,20.821,0,0,1-8,3.742ZM225.939,317.9l-9.132,20.327a12.894,12.894,0,0,1,5.082,1.1q2.265,1.031,4.465,2.233t4.533,2.233a14.494,14.494,0,0,0,5.22,1.166L225.942,317.9Zm10.78,28.772a14.107,14.107,0,0,1-5.631-1.063q-2.472-1.065-4.773-2.3t-4.738-2.265a14.262,14.262,0,0,0-5.6-1.031l-2.265,5.014a28.086,28.086,0,0,0-2.059,6.18,6.366,6.366,0,0,0,.1,3.26,1.936,1.936,0,0,0,1.34,1.269,7.569,7.569,0,0,0,1.715.206v.893H201.632l.067-.893a8.006,8.006,0,0,0,1.786-.241,6.1,6.1,0,0,0,2.335-1.3,15.676,15.676,0,0,0,2.814-3.26,41.155,41.155,0,0,0,3.3-6.113l16.688-37.288,16.206,43.057a7.367,7.367,0,0,0,1.51,2.541,7.462,7.462,0,0,0,2.027,1.58,9.082,9.082,0,0,0,2.094.79,8.223,8.223,0,0,0,1.853.241v.893H234.384v-.893a6.568,6.568,0,0,0,1.715-.241,4.012,4.012,0,0,0,1.58-.826,2.718,2.718,0,0,0,.893-1.58,4.722,4.722,0,0,0-.344-2.506l-1.51-4.121Zm-43.95-37.9v6.592h-.893a9.944,9.944,0,0,0-.755-2.644,3.59,3.59,0,0,0-1.2-1.478,4.024,4.024,0,0,0-1.715-.617,18,18,0,0,0-2.438-.138H172.445v20.533h7.279q1.58,0,3.126-.035a11.145,11.145,0,0,0,2.849-.411,4.446,4.446,0,0,0,2.094-1.237,3.574,3.574,0,0,0,.79-2.506h.826v10.093h-.826a3.71,3.71,0,0,0-.79-2.541,4.111,4.111,0,0,0-2.094-1.237,12.466,12.466,0,0,0-2.849-.379q-1.547-.034-3.126-.035h-7.279v22.386h9.887q3.089,0,5.082-.17a11.04,11.04,0,0,0,3.228-.687,4.557,4.557,0,0,0,1.956-1.478,10.784,10.784,0,0,0,1.34-2.541h.826l-1.375,6.592H160.428v-.893a8.223,8.223,0,0,0,1.853-.241,6.291,6.291,0,0,0,1.956-.826,4.849,4.849,0,0,0,1.545-1.58,4.688,4.688,0,0,0,.617-2.506V314.8a4.672,4.672,0,0,0-.617-2.506,4.85,4.85,0,0,0-1.545-1.58,6.37,6.37,0,0,0-1.956-.826,8.225,8.225,0,0,0-1.853-.241v-.893h32.344Zm-89.2,38.592a8.008,8.008,0,0,0,1.786-.241,5.947,5.947,0,0,0,1.956-.858,5.648,5.648,0,0,0,1.58-1.613,4.5,4.5,0,0,0,.652-2.506V331.977a12.653,12.653,0,0,0-6.9,3.948,14.868,14.868,0,0,0-3.469,6.935,18.641,18.641,0,0,0,.241,8.31,19.5,19.5,0,0,0,4.121,8,23.055,23.055,0,0,0,8.239,6.01,29.987,29.987,0,0,0,12.531,2.371,27.04,27.04,0,0,0,12.875-2.885,24.428,24.428,0,0,0,8.583-7.587,30.492,30.492,0,0,0,4.635-10.748,43.591,43.591,0,0,0,1-12.325,47.184,47.184,0,0,0-2.4-12.293A39.273,39.273,0,0,0,143.531,311a27.954,27.954,0,0,0-8.239-7.587,20.41,20.41,0,0,0-10.713-2.885q-.824,0-1.924.067t-2.2.17a18.732,18.732,0,0,0-2.094.308,15.31,15.31,0,0,0-1.613.411v28.156a22.526,22.526,0,0,1,8.137,2.335,16.9,16.9,0,0,1,5.287,4.224,12.727,12.727,0,0,1,2.576,5.22,10.417,10.417,0,0,1-.1,5.252A9.476,9.476,0,0,1,129.937,351a10.274,10.274,0,0,1-5.149,2.473l-.138-.138a12.759,12.759,0,0,0,2.233-5.323,15.9,15.9,0,0,0-.067-6.559,13.019,13.019,0,0,0-3.126-5.975,12.162,12.162,0,0,0-6.935-3.572v18.885a4.483,4.483,0,0,0,.652,2.506,5.15,5.15,0,0,0,1.58,1.58,6.369,6.369,0,0,0,1.956.826,8,8,0,0,0,1.786.241v.893a9.992,9.992,0,0,1-5.117-1.34,47.235,47.235,0,0,1-4.465-2.952,46.833,46.833,0,0,0-4.465-2.952,9.975,9.975,0,0,0-5.117-1.339v-.893ZM123,369.676a43.782,43.782,0,0,1-12.361-1.58,31.189,31.189,0,0,1-9.132-4.224,22.551,22.551,0,0,1-6.01-6.042,19.743,19.743,0,0,1-2.952-7.038,17.993,17.993,0,0,1,0-7.176,16.153,16.153,0,0,1,2.885-6.457,18.228,18.228,0,0,1,5.7-4.944,21.656,21.656,0,0,1,8.413-2.576V307.319a5.5,5.5,0,0,0-.755-2.987,6.252,6.252,0,0,0-1.853-1.924,7.012,7.012,0,0,0-2.3-1,9.791,9.791,0,0,0-2.162-.273v-1.031q3.778,0,6.765-.273t5.631-.585q2.645-.308,5.185-.549t5.287-.241a31.952,31.952,0,0,1,24.583,10.816,35.377,35.377,0,0,1,6.765,11.571,40.68,40.68,0,0,1,2.371,13.871,33.323,33.323,0,0,1-1.1,8.413,35.28,35.28,0,0,1-3.228,8.1,36.319,36.319,0,0,1-5.252,7.244,34.37,34.37,0,0,1-7.109,5.837,36.131,36.131,0,0,1-8.859,3.913,36.921,36.921,0,0,1-10.507,1.442Z" transform="translate(-62.471 -202.485)" fill="none" stroke="#63296f" stroke-miterlimit="22.93" stroke-width="0.22"/>
    <path id="Path_8" data-name="Path 8" d="M354.912,540.492a5.483,5.483,0,0,0-1.545-1.683,8.317,8.317,0,0,0-1.992-1.031,10.313,10.313,0,0,0-2.094-.514,14.46,14.46,0,0,0-1.853-.138v-.96H365.9v.96a11.068,11.068,0,0,0-1.715.138,4.839,4.839,0,0,0-1.58.514,1.778,1.778,0,0,0-.893,1.031,2.254,2.254,0,0,0,.344,1.683l11.33,20.533,9.338-16.688a14.059,14.059,0,0,0,1.751-4.153,3.133,3.133,0,0,0-.206-2.162,1.752,1.752,0,0,0-1.34-.79,15.234,15.234,0,0,0-1.715-.1v-.961h13.321v.961q-.824,0-1.889.1a6.221,6.221,0,0,0-2.335.79,11.236,11.236,0,0,0-2.679,2.162,21.212,21.212,0,0,0-2.92,4.153L374.07,563.222v14.969a4.483,4.483,0,0,0,.652,2.506,5.15,5.15,0,0,0,1.58,1.58,6.37,6.37,0,0,0,1.956.826,8.007,8.007,0,0,0,1.786.241v.893H362.053v-.893a8.227,8.227,0,0,0,1.853-.241,6.292,6.292,0,0,0,1.956-.826,4.849,4.849,0,0,0,1.545-1.58,4.687,4.687,0,0,0,.617-2.506V563.7l-13.116-23.212Zm-45.8,43.741v-.893a8.226,8.226,0,0,0,1.853-.241,6.294,6.294,0,0,0,1.956-.826,4.85,4.85,0,0,0,1.545-1.58,4.688,4.688,0,0,0,.617-2.506V542.481a4.672,4.672,0,0,0-.617-2.506,4.85,4.85,0,0,0-1.545-1.58,6.367,6.367,0,0,0-1.956-.826,8.226,8.226,0,0,0-1.853-.241v-.893q2.265,0,4.224-.138t3.88-.344q1.923-.207,3.913-.344t4.465-.138a40.515,40.515,0,0,1,7.279.652,21.733,21.733,0,0,1,6.351,2.13,12.807,12.807,0,0,1,4.465,3.81,9.615,9.615,0,0,1,1.683,5.769,9.42,9.42,0,0,1-2.92,6.524q-2.92,3.089-8.757,4.6a20.2,20.2,0,0,1,8.034,3.331,13.726,13.726,0,0,1,4.394,5.082,9.3,9.3,0,0,1,.755,5.769,10.6,10.6,0,0,1-2.92,5.461,17.447,17.447,0,0,1-6.592,4.051,29.4,29.4,0,0,1-10.266,1.58H309.105Zm18.059-1.58a17.2,17.2,0,0,0,6.01-.96,12.868,12.868,0,0,0,4.256-2.506,10.334,10.334,0,0,0,2.541-3.537,10.153,10.153,0,0,0,.858-4.051,9.986,9.986,0,0,0-1.269-5.082,11.857,11.857,0,0,0-3.3-3.675,14.338,14.338,0,0,0-4.568-2.2,18.729,18.729,0,0,0-5.149-.72c-.273,0-.562.013-.858.035s-.585.035-.858.035v-1.715a18.819,18.819,0,0,0,6.18-.928,14.667,14.667,0,0,0,4.5-2.4,9.871,9.871,0,0,0,2.747-3.4,8.806,8.806,0,0,0,.928-3.845,9.429,9.429,0,0,0-1.134-4.738,10.251,10.251,0,0,0-2.952-3.3,12.64,12.64,0,0,0-4.153-1.924,18.481,18.481,0,0,0-4.738-.617,15.117,15.117,0,0,0-2.746.241,12.44,12.44,0,0,0-2.335.652V582.66h6.042Zm-51.3-37.355-9.132,20.327a12.893,12.893,0,0,1,5.082,1.1q2.265,1.031,4.465,2.233t4.533,2.232a14.494,14.494,0,0,0,5.22,1.166L275.874,545.3Zm10.78,28.772a14.107,14.107,0,0,1-5.631-1.063q-2.472-1.065-4.773-2.3t-4.738-2.265a14.263,14.263,0,0,0-5.6-1.031l-2.265,5.014a28.09,28.09,0,0,0-2.059,6.18,6.367,6.367,0,0,0,.1,3.26,1.936,1.936,0,0,0,1.34,1.269,7.569,7.569,0,0,0,1.715.206v.893H251.564l.067-.893a8,8,0,0,0,1.786-.241,6.1,6.1,0,0,0,2.335-1.3,15.677,15.677,0,0,0,2.814-3.26,41.155,41.155,0,0,0,3.3-6.113l16.688-37.288,16.206,43.057a7.367,7.367,0,0,0,1.51,2.541,7.511,7.511,0,0,0,2.027,1.58,9.084,9.084,0,0,0,2.094.79,8.223,8.223,0,0,0,1.853.241v.893H284.316v-.893a6.568,6.568,0,0,0,1.715-.241,4.013,4.013,0,0,0,1.58-.826,2.718,2.718,0,0,0,.893-1.58,4.722,4.722,0,0,0-.344-2.506l-1.51-4.121Zm-84.807.687a8.227,8.227,0,0,0,1.853-.241,6.291,6.291,0,0,0,1.956-.826,4.85,4.85,0,0,0,1.545-1.58,4.688,4.688,0,0,0,.617-2.506V559.441a12.606,12.606,0,0,0-5.252,2.679,14.474,14.474,0,0,0-3.537,4.533,17.939,17.939,0,0,0-1.715,5.734,19.176,19.176,0,0,0,.206,6.248,21.788,21.788,0,0,0,2.2,6.078,17.6,17.6,0,0,0,4.224,5.185,21.024,21.024,0,0,0,6.386,3.6,24.947,24.947,0,0,0,8.619,1.375,23.933,23.933,0,0,0,9.544-1.751,19.8,19.8,0,0,0,6.765-4.671,19.241,19.241,0,0,0,4.051-6.627,21.89,21.89,0,0,0,1.34-7.485,20.45,20.45,0,0,0-1.407-7.69,18.47,18.47,0,0,0-3.916-6.078,17.7,17.7,0,0,0-6.01-4.019,20.156,20.156,0,0,0-7.761-1.442,8.494,8.494,0,0,1-1.031.067h-1.031v-2.059a23,23,0,0,0,7.417-1.1,17.415,17.415,0,0,0,5.39-2.849,11.657,11.657,0,0,0,3.26-4.051,10.656,10.656,0,0,0,1.1-4.635,11.093,11.093,0,0,0-1.134-5.149,12.2,12.2,0,0,0-2.952-3.742,13.684,13.684,0,0,0-4.121-2.4,21.123,21.123,0,0,0-4.7-1.166,20.258,20.258,0,0,0-4.7-.068,15.033,15.033,0,0,0-4.019.928v28.156a22.859,22.859,0,0,1,8.172,2.335,17.217,17.217,0,0,1,5.355,4.224,12.158,12.158,0,0,1,2.576,5.22,10.85,10.85,0,0,1-.1,5.22,9.425,9.425,0,0,1-2.679,4.327,10.1,10.1,0,0,1-5.149,2.506l-.138-.138a11.689,11.689,0,0,0,1.683-3.331,16.409,16.409,0,0,0,.79-4.153,16.2,16.2,0,0,0-.344-4.43,12.529,12.529,0,0,0-1.715-4.153,11.974,11.974,0,0,0-3.331-3.366,13.043,13.043,0,0,0-5.117-1.992V578.2a4.483,4.483,0,0,0,.652,2.506,5.15,5.15,0,0,0,1.58,1.58,6.367,6.367,0,0,0,1.956.826,8.223,8.223,0,0,0,1.853.241v.893a9.992,9.992,0,0,1-5.117-1.34,50.793,50.793,0,0,1-4.5-2.952,50.783,50.783,0,0,0-4.5-2.952,9.975,9.975,0,0,0-5.117-1.34v-.893Zm-1.166-47.725q2.746,0,5.082-.17t4.6-.411q2.265-.241,4.7-.411t5.39-.17a47.125,47.125,0,0,1,8.686.79,26.786,26.786,0,0,1,7.555,2.541,15.111,15.111,0,0,1,5.355,4.568,11.571,11.571,0,0,1,2.027,6.935,11.24,11.24,0,0,1-3.469,7.793q-3.469,3.672-10.472,5.461a28.734,28.734,0,0,1,6.971,2.506,22.258,22.258,0,0,1,5.7,4.153,18.934,18.934,0,0,1,3.88,5.769,17.977,17.977,0,0,1,1.442,7.279,20.366,20.366,0,0,1-1.889,8.445,21.8,21.8,0,0,1-5.666,7.485,29.168,29.168,0,0,1-9.409,5.323,38.52,38.52,0,0,1-13.048,2.027,37.37,37.37,0,0,1-11.432-1.58,27.21,27.21,0,0,1-8.31-4.189,19.645,19.645,0,0,1-7.658-12.981,19.018,19.018,0,0,1,.379-7.109,17.447,17.447,0,0,1,3.055-6.453,19.013,19.013,0,0,1,5.631-4.944,21.206,21.206,0,0,1,8.034-2.644l.067-22.73a5.636,5.636,0,0,0-.755-3.055,6.109,6.109,0,0,0-1.889-1.924,7.334,7.334,0,0,0-2.371-1,10.273,10.273,0,0,0-2.2-.273v-1.031Z" transform="translate(-129.232 -356.845)" fill="#63296f"/>
    <path id="Path_9" data-name="Path 9" d="M354.912,540.492a5.483,5.483,0,0,0-1.545-1.683,8.317,8.317,0,0,0-1.992-1.031,10.313,10.313,0,0,0-2.094-.514,14.46,14.46,0,0,0-1.853-.138v-.96H365.9v.96a11.068,11.068,0,0,0-1.715.138,4.839,4.839,0,0,0-1.58.514,1.778,1.778,0,0,0-.893,1.031,2.254,2.254,0,0,0,.344,1.683l11.33,20.533,9.338-16.688a14.059,14.059,0,0,0,1.751-4.153,3.133,3.133,0,0,0-.206-2.162,1.752,1.752,0,0,0-1.34-.79,15.234,15.234,0,0,0-1.715-.1v-.961h13.321v.961q-.824,0-1.889.1a6.221,6.221,0,0,0-2.335.79,11.236,11.236,0,0,0-2.679,2.162,21.212,21.212,0,0,0-2.92,4.153L374.07,563.222v14.969a4.483,4.483,0,0,0,.652,2.506,5.15,5.15,0,0,0,1.58,1.58,6.37,6.37,0,0,0,1.956.826,8.007,8.007,0,0,0,1.786.241v.893H362.053v-.893a8.227,8.227,0,0,0,1.853-.241,6.292,6.292,0,0,0,1.956-.826,4.849,4.849,0,0,0,1.545-1.58,4.687,4.687,0,0,0,.617-2.506V563.7l-13.116-23.212Zm-45.8,43.741v-.893a8.226,8.226,0,0,0,1.853-.241,6.294,6.294,0,0,0,1.956-.826,4.85,4.85,0,0,0,1.545-1.58,4.688,4.688,0,0,0,.617-2.506V542.481a4.672,4.672,0,0,0-.617-2.506,4.85,4.85,0,0,0-1.545-1.58,6.367,6.367,0,0,0-1.956-.826,8.226,8.226,0,0,0-1.853-.241v-.893q2.265,0,4.224-.138t3.88-.344q1.923-.207,3.913-.344t4.465-.138a40.515,40.515,0,0,1,7.279.652,21.733,21.733,0,0,1,6.351,2.13,12.807,12.807,0,0,1,4.465,3.81,9.615,9.615,0,0,1,1.683,5.769,9.42,9.42,0,0,1-2.92,6.524q-2.92,3.089-8.757,4.6a20.2,20.2,0,0,1,8.034,3.331,13.726,13.726,0,0,1,4.394,5.082,9.3,9.3,0,0,1,.755,5.769,10.6,10.6,0,0,1-2.92,5.461,17.447,17.447,0,0,1-6.592,4.051,29.4,29.4,0,0,1-10.266,1.58H309.105Zm18.059-1.58a17.2,17.2,0,0,0,6.01-.96,12.868,12.868,0,0,0,4.256-2.506,10.334,10.334,0,0,0,2.541-3.537,10.153,10.153,0,0,0,.858-4.051,9.986,9.986,0,0,0-1.269-5.082,11.857,11.857,0,0,0-3.3-3.675,14.338,14.338,0,0,0-4.568-2.2,18.729,18.729,0,0,0-5.149-.72c-.273,0-.562.013-.858.035s-.585.035-.858.035v-1.715a18.819,18.819,0,0,0,6.18-.928,14.667,14.667,0,0,0,4.5-2.4,9.871,9.871,0,0,0,2.747-3.4,8.806,8.806,0,0,0,.928-3.845,9.429,9.429,0,0,0-1.134-4.738,10.251,10.251,0,0,0-2.952-3.3,12.64,12.64,0,0,0-4.153-1.924,18.481,18.481,0,0,0-4.738-.617,15.117,15.117,0,0,0-2.746.241,12.44,12.44,0,0,0-2.335.652V582.66h6.042Zm-51.3-37.355-9.132,20.327a12.893,12.893,0,0,1,5.082,1.1q2.265,1.031,4.465,2.233t4.533,2.232a14.494,14.494,0,0,0,5.22,1.166L275.874,545.3Zm10.78,28.772a14.107,14.107,0,0,1-5.631-1.063q-2.472-1.065-4.773-2.3t-4.738-2.265a14.263,14.263,0,0,0-5.6-1.031l-2.265,5.014a28.09,28.09,0,0,0-2.059,6.18,6.367,6.367,0,0,0,.1,3.26,1.936,1.936,0,0,0,1.34,1.269,7.569,7.569,0,0,0,1.715.206v.893H251.564l.067-.893a8,8,0,0,0,1.786-.241,6.1,6.1,0,0,0,2.335-1.3,15.677,15.677,0,0,0,2.814-3.26,41.155,41.155,0,0,0,3.3-6.113l16.688-37.288,16.206,43.057a7.367,7.367,0,0,0,1.51,2.541,7.511,7.511,0,0,0,2.027,1.58,9.084,9.084,0,0,0,2.094.79,8.223,8.223,0,0,0,1.853.241v.893H284.316v-.893a6.568,6.568,0,0,0,1.715-.241,4.013,4.013,0,0,0,1.58-.826,2.718,2.718,0,0,0,.893-1.58,4.722,4.722,0,0,0-.344-2.506l-1.51-4.121Zm-84.807.687a8.227,8.227,0,0,0,1.853-.241,6.291,6.291,0,0,0,1.956-.826,4.85,4.85,0,0,0,1.545-1.58,4.688,4.688,0,0,0,.617-2.506V559.441a12.606,12.606,0,0,0-5.252,2.679,14.474,14.474,0,0,0-3.537,4.533,17.939,17.939,0,0,0-1.715,5.734,19.176,19.176,0,0,0,.206,6.248,21.788,21.788,0,0,0,2.2,6.078,17.6,17.6,0,0,0,4.224,5.185,21.024,21.024,0,0,0,6.386,3.6,24.947,24.947,0,0,0,8.619,1.375,23.933,23.933,0,0,0,9.544-1.751,19.8,19.8,0,0,0,6.765-4.671,19.241,19.241,0,0,0,4.051-6.627,21.89,21.89,0,0,0,1.34-7.485,20.45,20.45,0,0,0-1.407-7.69,18.47,18.47,0,0,0-3.916-6.078,17.7,17.7,0,0,0-6.01-4.019,20.156,20.156,0,0,0-7.761-1.442,8.494,8.494,0,0,1-1.031.067h-1.031v-2.059a23,23,0,0,0,7.417-1.1,17.415,17.415,0,0,0,5.39-2.849,11.657,11.657,0,0,0,3.26-4.051,10.656,10.656,0,0,0,1.1-4.635,11.093,11.093,0,0,0-1.134-5.149,12.2,12.2,0,0,0-2.952-3.742,13.684,13.684,0,0,0-4.121-2.4,21.123,21.123,0,0,0-4.7-1.166,20.258,20.258,0,0,0-4.7-.068,15.033,15.033,0,0,0-4.019.928v28.156a22.859,22.859,0,0,1,8.172,2.335,17.217,17.217,0,0,1,5.355,4.224,12.158,12.158,0,0,1,2.576,5.22,10.85,10.85,0,0,1-.1,5.22,9.425,9.425,0,0,1-2.679,4.327,10.1,10.1,0,0,1-5.149,2.506l-.138-.138a11.689,11.689,0,0,0,1.683-3.331,16.409,16.409,0,0,0,.79-4.153,16.2,16.2,0,0,0-.344-4.43,12.529,12.529,0,0,0-1.715-4.153,11.974,11.974,0,0,0-3.331-3.366,13.043,13.043,0,0,0-5.117-1.992V578.2a4.483,4.483,0,0,0,.652,2.506,5.15,5.15,0,0,0,1.58,1.58,6.367,6.367,0,0,0,1.956.826,8.223,8.223,0,0,0,1.853.241v.893a9.992,9.992,0,0,1-5.117-1.34,50.793,50.793,0,0,1-4.5-2.952,50.783,50.783,0,0,0-4.5-2.952,9.975,9.975,0,0,0-5.117-1.34v-.893Zm-1.166-47.725q2.746,0,5.082-.17t4.6-.411q2.265-.241,4.7-.411t5.39-.17a47.125,47.125,0,0,1,8.686.79,26.786,26.786,0,0,1,7.555,2.541,15.111,15.111,0,0,1,5.355,4.568,11.571,11.571,0,0,1,2.027,6.935,11.24,11.24,0,0,1-3.469,7.793q-3.469,3.672-10.472,5.461a28.734,28.734,0,0,1,6.971,2.506,22.258,22.258,0,0,1,5.7,4.153,18.934,18.934,0,0,1,3.88,5.769,17.977,17.977,0,0,1,1.442,7.279,20.366,20.366,0,0,1-1.889,8.445,21.8,21.8,0,0,1-5.666,7.485,29.168,29.168,0,0,1-9.409,5.323,38.52,38.52,0,0,1-13.048,2.027,37.37,37.37,0,0,1-11.432-1.58,27.21,27.21,0,0,1-8.31-4.189,19.645,19.645,0,0,1-7.658-12.981,19.018,19.018,0,0,1,.379-7.109,17.447,17.447,0,0,1,3.055-6.453,19.013,19.013,0,0,1,5.631-4.944,21.206,21.206,0,0,1,8.034-2.644l.067-22.73a5.636,5.636,0,0,0-.755-3.055,6.109,6.109,0,0,0-1.889-1.924,7.334,7.334,0,0,0-2.371-1,10.273,10.273,0,0,0-2.2-.273v-1.031Z" transform="translate(-129.232 -356.845)" fill="none" stroke="#63296f" stroke-miterlimit="22.93" stroke-width="0.22"/>
  </g>
</svg>
